#!OML:ASF F:\VICON\USERDATA\INSTALL\rory3\rory3.ASF
:FULLY-SPECIFIED
:DEGREES
3672
root 4.58287 17.2916 -5.50467 4.81019 -3.71505 -0.366063
lowerback 9.80447 0.271288 -6.97224
upperback 1.70851 -0.39663 -0.705431
thorax -3.67347 -0.11904 3.23877
lowerneck -21.3274 -3.80266 -13.4035
upperneck 23.3778 -2.70552 7.01447
head 11.4521 -1.54326 4.40809
rclavicle 1.31198e-014 7.95139e-016
rhumerus -18.0503 19.7733 -90.7911
rradius 130.55
rwrist -0.427343
rhand -20.6441 29.4554
rfingers 7.12502
rthumb 5.71797 -0.447465
lclavicle 1.31198e-014 7.95139e-016
lhumerus -4.00637 -7.82767 83.2426
lradius 127.059
lwrist -3.27955
lhand -10.1822 8.4313
lfingers 7.12502
lthumb 15.8082 37.8059
rfemur -28.2554 -4.08064 5.39047
rtibia 46.6445
rfoot -9.4566 9.42568
rtoes -15.0481
lfemur -10.9417 -10.1612 -5.64329
ltibia 38.2853
lfoot -15.9248 -12.9549
ltoes -27.4548
3673
root 4.5568 17.3119 -5.48042 4.85409 -3.1923 -0.391145
lowerback 9.86383 0.199375 -6.85245
upperback 1.69947 -0.48364 -0.687474
thorax -3.70758 -0.161875 3.20181
lowerneck -21.0734 -3.91117 -13.4232
upperneck 23.2327 -2.89881 7.05964
head 11.3728 -1.62615 4.39254
rclavicle 1.5704e-014 1.35174e-014
rhumerus -17.7291 20.2369 -90.7466
rradius 130.504
rwrist -0.549345
rhand -20.4878 29.246
rfingers 7.12502
rthumb 5.8689 -0.652742
lclavicle 1.5704e-014 1.35174e-014
lhumerus -4.41129 -7.63939 83.3077
lradius 126.958
lwrist -3.28835
lhand -10.0811 8.19971
lfingers 7.12502
lthumb 15.9055 37.5665
rfemur -28.1552 -3.80253 5.48047
rtibia 45.6596
rfoot -8.41118 10.4298
rtoes -16.6257
lfemur -11.1662 -10.6185 -5.46136
ltibia 38.3125
lfoot -15.3666 -13.1513
ltoes -27.2645
3674
root 4.53028 17.3224 -5.45834 4.88803 -2.75812 -0.398568
lowerback 9.93725 0.168844 -6.75741
upperback 1.70976 -0.518058 -0.655872
thorax -3.7346 -0.179101 3.18649
lowerneck -20.9674 -4.05263 -13.4855
upperneck 23.1419 -3.12319 7.17677
head 11.3483 -1.71748 4.40865
rclavicle 7.95139e-016 5.56597e-015
rhumerus -17.3626 20.6455 -90.5896
rradius 130.438
rwrist -0.446463
rhand -20.6688 29.0146
rfingers 7.12502
rthumb 5.69408 -0.888851
lclavicle 7.95139e-016 5.56597e-015
lhumerus -4.71214 -7.57238 83.4489
lradius 126.883
lwrist -3.24717
lhand -9.99012 8.03006
lfingers 7.12502
lthumb 15.9932 37.3899
rfemur -28.1103 -3.48369 5.56479
rtibia 44.7813
rfoot -7.24966 11.4603
rtoes -18.2616
lfemur -11.3455 -10.928 -5.30085
ltibia 38.3628
lfoot -14.9675 -13.3639
ltoes -27.7484
3675
root 4.50276 17.3326 -5.43506 4.90395 -2.30916 -0.375578
lowerback 9.95818 0.129126 -6.71704
upperback 1.72894 -0.564324 -0.59396
thorax -3.72098 -0.202924 3.23466
lowerneck -20.8892 -4.16489 -13.5385
upperneck 23.0901 -3.29359 7.24805
head 11.3369 -1.79006 4.41561
rclavicle -1.66979e-014 3.18055e-015
rhumerus -16.91 20.9518 -90.3143
rradius 130.335
rwrist -0.317639
rhand -20.8242 28.9916
rfingers 7.12502
rthumb 5.54406 -0.915857
lclavicle -1.66979e-014 3.18055e-015
lhumerus -4.94224 -7.50656 83.5736
lradius 126.894
lwrist -3.05658
lhand -9.70483 8.33283
lfingers 7.12502
lthumb 16.2679 37.6704
rfemur -28.0855 -3.16684 5.64714
rtibia 44.0743
rfoot -5.98463 12.502
rtoes -17.4613
lfemur -11.4996 -11.2839 -5.17045
ltibia 38.41
lfoot -14.7178 -13.5519
ltoes -28.2062
3676
root 4.47513 17.3348 -5.40988 4.85677 -1.93091 -0.36631
lowerback 9.99174 0.129797 -6.65702
upperback 1.76955 -0.555459 -0.538856
thorax -3.69798 -0.20059 3.25762
lowerneck -20.6991 -4.29735 -13.5486
upperneck 22.9681 -3.50672 7.26523
head 11.2814 -1.8849 4.3859
rclavicle 2.10712e-014 1.27222e-014
rhumerus -16.5197 21.0541 -90.0769
rradius 130.269
rwrist -0.131907
rhand -20.8152 29.0093
rfingers 7.12502
rthumb 5.55274 -0.897917
lclavicle 2.10712e-014 1.27222e-014
lhumerus -5.18963 -7.45918 83.738
lradius 126.911
lwrist -2.91092
lhand -9.35638 8.59411
lfingers 7.12502
lthumb 16.6034 37.9039
rfemur -28.062 -2.78031 5.72904
rtibia 43.5629
rfoot -4.53973 13.2996
rtoes -13.5295
lfemur -11.5173 -11.6821 -5.04414
ltibia 38.4276
lfoot -14.5841 -13.6274
ltoes -28.3584
3677
root 4.4461 17.327 -5.38762 4.86643 -1.58803 -0.407348
lowerback 10.0127 0.136943 -6.54547
upperback 1.79546 -0.53187 -0.47559
thorax -3.68541 -0.190847 3.25818
lowerneck -20.5641 -4.44475 -13.5715
upperneck 22.8417 -3.7549 7.37965
head 11.241 -1.98403 4.38978
rclavicle 1.03368e-014 -7.95139e-016
rhumerus -16.2415 21.0976 -89.8665
rradius 130.351
rwrist -0.0543478
rhand -20.7764 28.9809
rfingers 7.12502
rthumb 5.59024 -0.925325
lclavicle 1.03368e-014 -7.95139e-016
lhumerus -5.40559 -7.39491 83.9276
lradius 126.797
lwrist -3.01152
lhand -9.38862 8.31213
lfingers 7.12502
lthumb 16.5723 37.6245
rfemur -28.1582 -2.42922 5.89068
rtibia 43.2783
rfoot -3.48705 13.8531
rtoes -9.37487
lfemur -11.5693 -12.0298 -4.82422
ltibia 38.4053
lfoot -14.5215 -13.7147
ltoes -28.4162
3678
root 4.41718 17.3188 -5.36387 4.80887 -1.13571 -0.399578
lowerback 10.0703 0.0731265 -6.47895
upperback 1.80963 -0.609254 -0.387924
thorax -3.69419 -0.229414 3.32302
lowerneck -20.3812 -4.53119 -13.5645
upperneck 22.7548 -3.91922 7.43564
head 11.1944 -2.05185 4.3813
rclavicle 1.15295e-014 -1.59028e-015
rhumerus -16.015 21.3297 -89.6925
rradius 130.506
rwrist 0.152714
rhand -21.0104 28.5419
rfingers 7.12502
rthumb 5.36429 -1.37017
lclavicle 1.15295e-014 -1.59028e-015
lhumerus -5.62427 -7.30666 84.1449
lradius 126.697
lwrist -3.27606
lhand -9.55833 8.20253
lfingers 7.12502
lthumb 16.4089 37.5285
rfemur -28.1203 -2.14625 6.00443
rtibia 43.252
rfoot -3.24982 14.1404
rtoes -6.74789
lfemur -11.577 -12.515 -4.64642
ltibia 38.3441
lfoot -14.4985 -13.8747
ltoes -28.3228
3679
root 4.38843 17.308 -5.34065 4.56828 -0.680064 -0.275446
lowerback 10.3527 0.0339794 -6.47765
upperback 1.81268 -0.680913 -0.355035
thorax -3.83986 -0.259927 3.36938
lowerneck -20.0444 -4.6007 -13.5583
upperneck 22.6336 -4.08438 7.5049
head 11.1061 -2.12068 4.37759
rclavicle 1.78906e-015 -1.74931e-014
rhumerus -15.8558 21.4109 -89.593
rradius 130.511
rwrist 0.560176
rhand -21.4318 28.2758
rfingers 7.12502
rthumb 4.95745 -1.64616
lclavicle 1.78906e-015 -1.74931e-014
lhumerus -5.95606 -7.34925 84.3509
lradius 126.71
lwrist -3.5262
lhand -9.65735 8.14263
lfingers 7.12502
lthumb 16.3136 37.4764
rfemur -27.9284 -1.83557 5.98853
rtibia 43.4995
rfoot -3.56639 13.8007
rtoes -5.70522
lfemur -11.3767 -13.1397 -4.63406
ltibia 38.2567
lfoot -14.4791 -14.0344
ltoes -28.3143
3680
root 4.35562 17.2892 -5.31915 4.33451 -0.306205 -0.199587
lowerback 10.6612 0.0470063 -6.48658
upperback 1.80603 -0.685094 -0.280135
thorax -4.01661 -0.255473 3.45746
lowerneck -19.6966 -4.69491 -13.6591
upperneck 22.4967 -4.26623 7.63334
head 11.0167 -2.1995 4.41136
rclavicle 6.95746e-016 2.38542e-015
rhumerus -15.5832 21.232 -89.3331
rradius 130.311
rwrist 0.557599
rhand -21.6071 29.1046
rfingers 7.12502
rthumb 4.78816 -0.8213
lclavicle 6.95746e-016 2.38542e-015
lhumerus -6.32104 -7.36114 84.6457
lradius 126.753
lwrist -3.68856
lhand -9.6637 7.79668
lfingers 7.12502
lthumb 16.3075 37.131
rfemur -27.7889 -1.42183 6.02333
rtibia 43.9875
rfoot -4.21104 12.9886
rtoes -5.42643
lfemur -11.1518 -13.649 -4.55576
ltibia 38.1581
lfoot -14.4785 -14.1937
ltoes -28.6279
3681
root 4.32401 17.2637 -5.29418 4.20978 -0.00652019 -0.0499958
lowerback 10.7532 0.0341094 -6.57309
upperback 1.83871 -0.715152 -0.227233
thorax -4.02811 -0.269205 3.56687
lowerneck -19.6675 -4.76951 -13.6046
upperneck 22.503 -4.39716 7.64573
head 11.0284 -2.25332 4.38639
rclavicle -3.27995e-015 -4.77083e-015
rhumerus -15.0782 21.2364 -89.0412
rradius 130.165
rwrist 0.318483
rhand -21.6296 29.6807
rfingers 7.12502
rthumb 4.76639 -0.245699
lclavicle -3.27995e-015 -4.77083e-015
lhumerus -6.54962 -7.25206 84.8405
lradius 126.687
lwrist -3.91846
lhand -9.78088 7.39282
lfingers 7.12502
lthumb 16.1946 36.7363
rfemur -27.7165 -1.14176 5.95014
rtibia 44.6582
rfoot -4.95726 12.4671
rtoes -4.76395
lfemur -10.9843 -14.0712 -4.58464
ltibia 38.0818
lfoot -14.5881 -14.2387
ltoes -29.0247
3682
root 4.29172 17.2357 -5.26563 4.17457 0.323473 0.186093
lowerback 10.6075 -0.0101359 -6.6753
upperback 1.91542 -0.770986 -0.237778
thorax -3.85915 -0.302978 3.61838
lowerneck -19.7093 -4.87105 -13.5368
upperneck 22.4629 -4.57506 7.72063
head 11.0431 -2.31753 4.37372
rclavicle -4.47266e-015 -7.95139e-016
rhumerus -14.5823 21.2965 -88.8661
rradius 130.147
rwrist 0.219884
rhand -21.8185 29.7137
rfingers 7.12502
rthumb 4.58402 -0.216688
lclavicle -4.47266e-015 -7.95139e-016
lhumerus -6.66559 -7.24058 84.9776
lradius 126.631
lwrist -4.08745
lhand -10.0056 7.24812
lfingers 7.12502
lthumb 15.9783 36.6091
rfemur -27.6805 -1.05566 5.79415
rtibia 45.4127
rfoot -5.56012 12.5025
rtoes -4.13908
lfemur -10.9205 -14.3953 -4.6884
ltibia 38.0556
lfoot -14.8316 -14.3195
ltoes -29.2039
